<mxfile host="app.diagrams.net" modified="2024-01-15T06:33:58.766Z" agent="Mozilla/5.0 (Windows NT 10.0; Win64; x64) AppleWebKit/537.36 (KHTML, like Gecko) Chrome/120.0.0.0 Safari/537.36" etag="BfurFrPc6zYVhNnvy-J0" version="22.1.18" type="github">
  <diagram name="Page-1" id="fS8TGvwCn-0KRB2SJR9b">
    <mxGraphModel dx="880" dy="434" grid="1" gridSize="10" guides="1" tooltips="1" connect="1" arrows="1" fold="1" page="1" pageScale="1" pageWidth="850" pageHeight="1100" math="0" shadow="0">
      <root>
        <mxCell id="0" />
        <mxCell id="1" parent="0" />
        <mxCell id="zLddz1JKHRHsstX0XcwO-6" style="edgeStyle=orthogonalEdgeStyle;rounded=0;orthogonalLoop=1;jettySize=auto;html=1;exitX=1;exitY=0.5;exitDx=0;exitDy=0;entryX=0.5;entryY=0;entryDx=0;entryDy=0;curved=1;" edge="1" parent="1" source="zLddz1JKHRHsstX0XcwO-1" target="zLddz1JKHRHsstX0XcwO-3">
          <mxGeometry relative="1" as="geometry" />
        </mxCell>
        <mxCell id="zLddz1JKHRHsstX0XcwO-1" value="" style="ellipse;whiteSpace=wrap;html=1;" vertex="1" parent="1">
          <mxGeometry x="320" y="80" width="120" height="80" as="geometry" />
        </mxCell>
        <mxCell id="zLddz1JKHRHsstX0XcwO-2" value="Global Warming" style="text;html=1;strokeColor=none;fillColor=none;align=center;verticalAlign=middle;whiteSpace=wrap;rounded=0;" vertex="1" parent="1">
          <mxGeometry x="335" y="92.5" width="90" height="55" as="geometry" />
        </mxCell>
        <mxCell id="zLddz1JKHRHsstX0XcwO-7" style="edgeStyle=orthogonalEdgeStyle;rounded=0;orthogonalLoop=1;jettySize=auto;html=1;entryX=1;entryY=0.5;entryDx=0;entryDy=0;curved=1;" edge="1" parent="1" source="zLddz1JKHRHsstX0XcwO-3" target="zLddz1JKHRHsstX0XcwO-5">
          <mxGeometry relative="1" as="geometry">
            <Array as="points">
              <mxPoint x="540" y="360" />
            </Array>
          </mxGeometry>
        </mxCell>
        <mxCell id="zLddz1JKHRHsstX0XcwO-3" value="" style="ellipse;whiteSpace=wrap;html=1;" vertex="1" parent="1">
          <mxGeometry x="480" y="200" width="120" height="80" as="geometry" />
        </mxCell>
        <mxCell id="zLddz1JKHRHsstX0XcwO-9" style="edgeStyle=orthogonalEdgeStyle;rounded=0;orthogonalLoop=1;jettySize=auto;html=1;entryX=0;entryY=0.5;entryDx=0;entryDy=0;curved=1;" edge="1" parent="1" source="zLddz1JKHRHsstX0XcwO-4" target="zLddz1JKHRHsstX0XcwO-1">
          <mxGeometry relative="1" as="geometry">
            <Array as="points">
              <mxPoint x="220" y="120" />
            </Array>
          </mxGeometry>
        </mxCell>
        <mxCell id="zLddz1JKHRHsstX0XcwO-4" value="" style="ellipse;whiteSpace=wrap;html=1;" vertex="1" parent="1">
          <mxGeometry x="160" y="200" width="120" height="80" as="geometry" />
        </mxCell>
        <mxCell id="zLddz1JKHRHsstX0XcwO-8" style="edgeStyle=orthogonalEdgeStyle;rounded=0;orthogonalLoop=1;jettySize=auto;html=1;entryX=0.5;entryY=1;entryDx=0;entryDy=0;curved=1;" edge="1" parent="1" source="zLddz1JKHRHsstX0XcwO-5" target="zLddz1JKHRHsstX0XcwO-4">
          <mxGeometry relative="1" as="geometry" />
        </mxCell>
        <mxCell id="zLddz1JKHRHsstX0XcwO-5" value="" style="ellipse;whiteSpace=wrap;html=1;" vertex="1" parent="1">
          <mxGeometry x="320" y="320" width="120" height="80" as="geometry" />
        </mxCell>
        <mxCell id="zLddz1JKHRHsstX0XcwO-10" value="" style="shape=mxgraph.signs.healthcare.first_aid;html=1;pointerEvents=1;fillColor=#000000;strokeColor=none;verticalLabelPosition=bottom;verticalAlign=top;align=center;" vertex="1" parent="1">
          <mxGeometry x="510" y="110.5" width="20" height="19" as="geometry" />
        </mxCell>
        <mxCell id="zLddz1JKHRHsstX0XcwO-12" style="edgeStyle=orthogonalEdgeStyle;rounded=0;orthogonalLoop=1;jettySize=auto;html=1;exitX=0.5;exitY=0;exitDx=0;exitDy=0;exitPerimeter=0;entryX=0.5;entryY=0.5;entryDx=0;entryDy=0;entryPerimeter=0;" edge="1" parent="1" source="zLddz1JKHRHsstX0XcwO-10" target="zLddz1JKHRHsstX0XcwO-10">
          <mxGeometry relative="1" as="geometry" />
        </mxCell>
        <mxCell id="zLddz1JKHRHsstX0XcwO-16" value="" style="shape=mxgraph.signs.healthcare.first_aid;html=1;pointerEvents=1;fillColor=#000000;strokeColor=none;verticalLabelPosition=bottom;verticalAlign=top;align=center;" vertex="1" parent="1">
          <mxGeometry x="230" y="350" width="20" height="19" as="geometry" />
        </mxCell>
        <mxCell id="zLddz1JKHRHsstX0XcwO-17" value="" style="shape=mxgraph.signs.healthcare.first_aid;html=1;pointerEvents=1;fillColor=#000000;strokeColor=none;verticalLabelPosition=bottom;verticalAlign=top;align=center;" vertex="1" parent="1">
          <mxGeometry x="229" y="110.5" width="20" height="19" as="geometry" />
        </mxCell>
        <mxCell id="zLddz1JKHRHsstX0XcwO-19" value="" style="shape=mxgraph.signs.healthcare.first_aid;html=1;pointerEvents=1;fillColor=#000000;strokeColor=none;verticalLabelPosition=bottom;verticalAlign=top;align=center;" vertex="1" parent="1">
          <mxGeometry x="510" y="353" width="20" height="19" as="geometry" />
        </mxCell>
        <mxCell id="zLddz1JKHRHsstX0XcwO-24" value="Global Temperature" style="text;html=1;strokeColor=none;fillColor=none;align=center;verticalAlign=middle;whiteSpace=wrap;rounded=0;" vertex="1" parent="1">
          <mxGeometry x="495" y="212.5" width="90" height="55" as="geometry" />
        </mxCell>
        <mxCell id="zLddz1JKHRHsstX0XcwO-25" value="Hurricane Activity" style="text;html=1;strokeColor=none;fillColor=none;align=center;verticalAlign=middle;whiteSpace=wrap;rounded=0;" vertex="1" parent="1">
          <mxGeometry x="335" y="335" width="90" height="55" as="geometry" />
        </mxCell>
        <mxCell id="zLddz1JKHRHsstX0XcwO-26" value="Land Changes" style="text;html=1;strokeColor=none;fillColor=none;align=center;verticalAlign=middle;whiteSpace=wrap;rounded=0;" vertex="1" parent="1">
          <mxGeometry x="175" y="212.5" width="90" height="55" as="geometry" />
        </mxCell>
      </root>
    </mxGraphModel>
  </diagram>
</mxfile>
